<svg width="182" height="16" viewBox="0 0 182 16" fill="none" xmlns="http://www.w3.org/2000/svg">
<path d="M0.548 15V1.608H3.824L7.154 8.016L8.468 10.986H8.558C8.378 9.564 8.126 7.638 8.126 6.036V1.608H11.186V15H7.91L4.598 8.538L3.284 5.604H3.194C3.338 7.098 3.608 8.934 3.608 10.554V15H0.548ZM18.4881 15.252C15.8781 15.252 13.4661 13.272 13.4661 9.888C13.4661 6.486 15.8781 4.506 18.4881 4.506C21.0801 4.506 23.4921 6.486 23.4921 9.888C23.4921 13.272 21.0801 15.252 18.4881 15.252ZM18.4881 12.66C19.6761 12.66 20.2161 11.58 20.2161 9.888C20.2161 8.178 19.6761 7.098 18.4881 7.098C17.2821 7.098 16.7421 8.178 16.7421 9.888C16.7421 11.58 17.2821 12.66 18.4881 12.66ZM28.4576 15.252C27.1256 15.252 25.5416 14.676 24.5156 13.812L25.9376 11.814C26.8736 12.534 27.7196 12.894 28.5296 12.894C29.3756 12.894 29.7356 12.588 29.7356 12.084C29.7356 11.472 28.7456 11.184 27.7016 10.77C26.4776 10.284 25.0376 9.456 25.0376 7.764C25.0376 5.82 26.6216 4.506 28.9976 4.506C30.6176 4.506 31.7696 5.154 32.6696 5.82L31.2296 7.728C30.5096 7.224 29.7896 6.864 29.1056 6.864C28.3856 6.864 28.0256 7.116 28.0256 7.602C28.0256 8.214 28.9616 8.448 30.0236 8.826C31.3016 9.312 32.7236 10.05 32.7236 11.904C32.7236 13.794 31.2476 15.252 28.4576 15.252ZM38.1835 15.252C35.6095 15.252 34.5655 13.632 34.5655 11.202V7.26H33.1795V4.884L34.7455 4.758L35.1055 2.058H37.7695V4.758H40.1815V7.26H37.7695V11.166C37.7695 12.3 38.3095 12.75 39.0655 12.75C39.3895 12.75 39.7495 12.642 40.0015 12.57L40.5055 14.874C39.9655 15.036 39.2275 15.252 38.1835 15.252ZM42.1671 15V4.758H44.7771L44.9931 6.54H45.0651C45.8211 5.172 46.9551 4.506 47.9811 4.506C48.5931 4.506 48.9351 4.596 49.2231 4.722L48.6831 7.476C48.3231 7.386 48.0171 7.314 47.5671 7.314C46.8111 7.314 45.8931 7.8 45.3531 9.15V15H42.1671ZM52.511 15.252C50.621 15.252 49.469 13.848 49.469 12.138C49.469 9.978 51.161 8.808 55.157 8.376C55.085 7.548 54.653 7.062 53.609 7.062C52.799 7.062 51.953 7.386 50.927 7.962L49.811 5.856C51.161 5.046 52.619 4.506 54.221 4.506C56.867 4.506 58.361 5.982 58.361 9.186V15H55.751L55.517 13.974H55.445C54.599 14.73 53.645 15.252 52.511 15.252ZM53.609 12.768C54.257 12.768 54.689 12.462 55.157 11.958V10.32C53.159 10.59 52.511 11.166 52.511 11.886C52.511 12.48 52.943 12.768 53.609 12.768ZM63.8951 15.252C62.5631 15.252 60.9791 14.676 59.9531 13.812L61.3751 11.814C62.3111 12.534 63.1571 12.894 63.9671 12.894C64.8131 12.894 65.1731 12.588 65.1731 12.084C65.1731 11.472 64.1831 11.184 63.1391 10.77C61.9151 10.284 60.4751 9.456 60.4751 7.764C60.4751 5.82 62.0591 4.506 64.4351 4.506C66.0551 4.506 67.2071 5.154 68.1071 5.82L66.6671 7.728C65.9471 7.224 65.2271 6.864 64.5431 6.864C63.8231 6.864 63.4631 7.116 63.4631 7.602C63.4631 8.214 64.3991 8.448 65.4611 8.826C66.7391 9.312 68.1611 10.05 68.1611 11.904C68.1611 13.794 66.6851 15.252 63.8951 15.252ZM70.0108 15V4.758H73.1968V15H70.0108ZM71.6128 3.336C70.5328 3.336 69.7768 2.652 69.7768 1.698C69.7768 0.725999 70.5328 0.0419995 71.6128 0.0419995C72.6748 0.0419995 73.4308 0.725999 73.4308 1.698C73.4308 2.652 72.6748 3.336 71.6128 3.336ZM78.386 15.252C76.496 15.252 75.344 13.848 75.344 12.138C75.344 9.978 77.036 8.808 81.032 8.376C80.96 7.548 80.528 7.062 79.484 7.062C78.674 7.062 77.828 7.386 76.802 7.962L75.686 5.856C77.036 5.046 78.494 4.506 80.096 4.506C82.742 4.506 84.236 5.982 84.236 9.186V15H81.626L81.392 13.974H81.32C80.474 14.73 79.52 15.252 78.386 15.252ZM79.484 12.768C80.132 12.768 80.564 12.462 81.032 11.958V10.32C79.034 10.59 78.386 11.166 78.386 11.886C78.386 12.48 78.818 12.768 79.484 12.768ZM90.2833 15V13.164C93.6313 10.122 95.8813 7.692 95.8813 5.748C95.8813 4.524 95.1973 3.858 94.1353 3.858C93.2173 3.858 92.4973 4.47 91.8673 5.154L90.1213 3.426C91.4353 2.04 92.6593 1.356 94.5673 1.356C97.1593 1.356 98.9593 3.012 98.9593 5.568C98.9593 7.872 96.9793 10.41 94.9273 12.48C95.5933 12.39 96.5113 12.3 97.1053 12.3H99.5713V15H90.2833ZM105.968 15.252C103.142 15.252 101.234 12.84 101.234 8.232C101.234 3.624 103.142 1.356 105.968 1.356C108.794 1.356 110.72 3.66 110.72 8.232C110.72 12.84 108.794 15.252 105.968 15.252ZM105.968 12.768C106.922 12.768 107.696 11.904 107.696 8.232C107.696 4.578 106.922 3.822 105.968 3.822C105.014 3.822 104.258 4.578 104.258 8.232C104.258 11.904 105.014 12.768 105.968 12.768ZM112.221 15V13.164C115.569 10.122 117.819 7.692 117.819 5.748C117.819 4.524 117.135 3.858 116.073 3.858C115.155 3.858 114.435 4.47 113.805 5.154L112.059 3.426C113.373 2.04 114.597 1.356 116.505 1.356C119.097 1.356 120.897 3.012 120.897 5.568C120.897 7.872 118.917 10.41 116.865 12.48C117.531 12.39 118.449 12.3 119.043 12.3H121.509V15H112.221ZM125.89 9.222H128.446V7.26C128.446 6.414 128.536 5.136 128.572 4.29H128.5C128.158 5.046 127.798 5.82 127.42 6.576L125.89 9.222ZM132.928 9.222V11.652H131.434V15H128.446V11.652H122.83V9.438L127.492 1.608H131.434V9.222H132.928ZM139.064 15V1.608H147.614V4.272H142.286V7.206H146.858V9.888H142.286V15H139.064ZM153.717 15.252C151.107 15.252 148.695 13.272 148.695 9.888C148.695 6.486 151.107 4.506 153.717 4.506C156.309 4.506 158.721 6.486 158.721 9.888C158.721 13.272 156.309 15.252 153.717 15.252ZM153.717 12.66C154.905 12.66 155.445 11.58 155.445 9.888C155.445 8.178 154.905 7.098 153.717 7.098C152.511 7.098 151.971 8.178 151.971 9.888C151.971 11.58 152.511 12.66 153.717 12.66ZM165.178 15.252C162.568 15.252 160.156 13.272 160.156 9.888C160.156 6.486 162.568 4.506 165.178 4.506C167.77 4.506 170.182 6.486 170.182 9.888C170.182 13.272 167.77 15.252 165.178 15.252ZM165.178 12.66C166.366 12.66 166.906 11.58 166.906 9.888C166.906 8.178 166.366 7.098 165.178 7.098C163.972 7.098 163.432 8.178 163.432 9.888C163.432 11.58 163.972 12.66 165.178 12.66ZM175.864 15.252C173.308 15.252 171.67 13.218 171.67 9.888C171.67 6.522 173.776 4.506 175.9 4.506C177.034 4.506 177.7 4.92 178.366 5.568L178.24 4.038V0.618H181.462V15H178.852L178.618 14.01H178.546C177.826 14.73 176.836 15.252 175.864 15.252ZM176.71 12.624C177.322 12.624 177.808 12.426 178.24 11.76V7.728C177.754 7.278 177.196 7.116 176.656 7.116C175.774 7.116 174.964 7.944 174.964 9.834C174.964 11.796 175.612 12.624 176.71 12.624Z" fill="#210E4A"/>
</svg>
